# xmcd CD database file
# Generated: Thu Jan  3 23:10:29 2002 by WSPse's MP3c
#
# Track frame offsets:
#       150
#       13562
#       27187
#       39812
#       52212
#       63550
#       78412
#       95412
#       105437
#       117950
#       128275
#       140225
#
# Disc length: 2058 seconds
#
# Revision: 2
# Processed by: cddbd v1.4PL0 Copyright (c) Steve Scherf et al.
# Submitted via: MP3c 0.27
#   WSPse mp3c-0.27 (NLS) - ENGLISH (Dec 13 2001)
#
DISCID=9608080c
DTITLE=Various Artist - Country Legends - Honky Tonkers
DYEAR=1900
DGENRE=
TTITLE0=If You've Got The Money, I've Got The Time
TTITLE1=City Lights
TTITLE2=Pistol Packin' Mama
TTITLE3=Slipping Around
TTITLE4=Hey Joe!
TTITLE5=Jack Daniel's, If You Please
TTITLE6=Bartender's Blues
TTITLE7=Honky-Tonk Man
TTITLE8=Barstool Mountain
TTITLE9=Smoky Places
TTITLE10=Please Don't Squeeze My Sharmon
TTITLE11=Stranger
EXTD=
EXTT0=Lefty Frizzell
EXTT1=Ray Price
EXTT2=Al Dexter and His Troopers
EXTT3=Floyd Tillman
EXTT4=Carl Smith
EXTT5=David Allan Coe
EXTT6=George Jones With James Taylor
EXTT7=Johnny Horton
EXTT8=Moe Bandy
EXTT9=Billy Walker
EXTT10=Charlie Walker
EXTT11=Johnny Duncan
PLAYORDER=
